PathFileType	4	(X/Y/Z)	C:/Users/beibeiliu/ov580/test_trc/User3\sequence.4_training_dense_left.trc
DataRate	CameraRate	NumFrames	NumMarkers	Units	OrigDataRate	OrigDataStartFrame	OrigNumFrames
120	120	17	19	mm	120	63	93
Frame#	Time	ThumbCMC			ThumbMCP			ThumbIP			ThumbTip			IndexMCP			IndexPIP			IndexTip			MiddleMCP			MiddlePIP			MiddleTip			RingMCP			RingPIP			RingTip			PinkyMCP			PinkyPIP			PinkyTip			BackHand1			BackHand2			BackHand3	
		X0	Y0	Z0	X1	Y1	Z1	X2	Y2	Z2	X3	Y3	Z3	X4	Y4	Z4	X5	Y5	Z5	X6	Y6	Z6	X7	Y7	Z7	X8	Y8	Z8	X9	Y9	Z9	X10	Y10	Z10	X11	Y11	Z11	X12	Y12	Z12	X13	Y13	Z13	X14	Y14	Z14	X15	Y15	Z15	X16	Y16	Z16	X17	Y17	Z17	X18	Y18	Z18	
62	0.516667	-234.032	-26.1972	14.1675	-250.252	-27.7047	-11.0896	-268.95	-25.0988	-26.0924	-289.189	-24.1862	-41.5065	-233.279	-57.2327	-56.3369	-220.124	-29.3791	-63.1555	-215.744	-29.4034	-27.2798	-216.139	-63.5775	-58.3535	-203.105	-32.6115	-58.2132	-200.824	-39.0988	-20.5205	-194.004	-66.3013	-53.6283	-186.441	-37.5464	-54.032	-189.397	-35.8707	-17.9069	-178.253	-69.0946	-45.6609	-172.627	-40.8277	-43.96	-176.045	-37.0639	-12.5239	-200.164	-83.139	4.87388	-193.301	-69.5009	29.7424	-225.499	-62.3394	16.8981	
63	0.525	-241.144	-18.6635	16.7637	-258.271	-15.4387	-5.09352	-279.218	-10.6634	-20.947	-297.661	-4.97715	-34.9541	-253.851	-49.4853	-49.2066	-234.763	-23.8541	-56.858	-230.714	-23.1067	-23.1936	-236.731	-59.2826	-55.2886	-220.633	-33.1666	-58.3259	-219.072	-35.069	-17.801	-219.071	-67.5302	-48.2457	-204.011	-38.8822	-51.7447	-201.609	-35.7684	-18.9744	-204.109	-72.8687	-42.1916	-189.945	-46.4346	-45.6115	-193.241	-39.112	-14.9213	-221.641	-79.3466	6.88133	-204.833	-71.263	34.2607	-242.492	-56.0559	21.1312	
64	0.533333	-247.206	-6.56077	17.7254	-261.521	5.30505	-1.6208	-287.593	16.0714	-19.1792	-298.783	24.0701	-31.4906	-269.376	-30.493	-48.0568	-245.579	-8.85164	-53.8847	-240.907	-7.49951	-23.427	-258.738	-42.4365	-52.4291	-232.541	-21.5442	-54.7228	-230.314	-26.8109	-15.8483	-238.59	-55.8258	-50.3913	-218.705	-32.4261	-52.3252	-216.907	-27.4948	-18.1595	-226.84	-62.1716	-42.8545	-208.662	-40.0551	-45.9284	-202.433	-37.13	-16.1391	-241.277	-69.439	7.62247	-223.47	-61.0931	32.462	-254.387	-38.6765	22.8342	
65	0.541667	-249.897	13.586	17.9376	-265.666	27.4058	-4.35196	-277.824	43.8186	-16.9202	-291.941	57.7287	-28.5258	-283.551	-3.37453	-41.8332	-253.067	9.38517	-53.2783	-244.974	6.73068	-19.8575	-273.478	-17.6166	-50.9579	-242.747	-6.69727	-54.8982	-237.709	-12.31	-18.9081	-259.292	-31.462	-48.7647	-232.096	-17.2097	-50.342	-226.831	-17.3256	-18.1339	-246.823	-43.9687	-45.5492	-223.078	-31.2813	-46.2434	-221.05	-24.7741	-16.1315	-259.772	-48.9398	8.72748	-243.205	-50.263	30.8765	-264.872	-20.1832	25.3262	
66	0.55	-245.994	35.1791	18.5052	-254.145	52.7693	-0.369077	-265.969	72.703	-16.9882	-272.405	90.8429	-27.4339	-285.984	29.8494	-38.8228	-254.645	32.9059	-53.6052	-244.407	26.1463	-21.2591	-281.054	9.65802	-49.9618	-251.223	17.1978	-57.0697	-245.864	6.1025	-16.1958	-272.189	-7.67305	-47.868	-241.987	-4.29203	-52.3976	-233.938	-1.90382	-21.3968	-266.777	-26.0575	-42.7754	-240.773	-14.9142	-47.1751	-231.888	-18.2268	-17.9666	-277.338	-22.1952	11.0122	-258.002	-28.3085	30.4827	-270.974	7.11373	27.6401	
67	0.558333	-234.912	50.759	18.3872	-236.55	67.9687	-2.0863	-241.416	93.067	-18.7823	-245.639	108.12	-34.2768	-277.374	55.7171	-38.8883	-248.909	50.3978	-54.8388	-236.754	39.9294	-24.8336	-280.022	36.7389	-46.561	-249.398	29.8431	-55.4472	-245.301	19.7277	-19.0217	-278.847	18.318	-45.8208	-247.851	11.8618	-50.6397	-239.885	10.4494	-20.0079	-276.435	0.114814	-44.6276	-248.893	-1.56681	-45.5578	-245.087	-2.4684	-14.9776	-286.487	6.63071	12.7253	-267.903	-3.29711	31.2304	-267.362	32.8287	27.2374	
68	0.566667	-219.442	53.6479	14.8333	-215.571	71.4758	-7.16855	-214.901	90.5415	-24.7872	-210.914	108.482	-41.6364	-259.079	73.7956	-44.0844	-235.349	53.9969	-57.326	-231.996	41.7321	-28.6165	-271.042	56.5185	-49.2411	-247.165	38.3394	-59.3173	-240.784	29.8269	-21.4202	-275.84	39.9457	-45	-250.564	21.6614	-53.3936	-242.183	13.1259	-23.3922	-282.051	18.9755	-44.1447	-254.559	10.5949	-46.5759	-248.641	9.01585	-17.8993	-285.023	33.961	9.39674	-272.667	15.0688	33.0267	-257.761	49.0834	23.4103	
69	0.575	-212.324	45.5112	7.26541	-203.586	62.2882	-18.8016	-194.107	79.5141	-38.5463	-186.529	89.8095	-56.2792	-240.541	74.8469	-53.9884	-227.143	46.9011	-63.9407	-226.752	38.1422	-34.1214	-259.014	57.752	-59.1661	-242.431	33.7859	-65.2059	-239.248	29.5403	-24.0235	-270.812	41.841	-52.1358	-252.558	18.9595	-58.1789	-241.41	15.4266	-26.0911	-280.213	27.9069	-49.0233	-256.701	12.3358	-49.1091	-252.478	9.01846	-20.5434	-279.103	45.645	6.95025	-269.501	25.588	30.9808	-246.664	55.3887	17.0461	
70	0.583333	-204.609	35.1543	-4.1814	-198.634	40.2856	-31.3078	-183.741	50.7299	-56.2635	-175.621	57.0469	-76.4877	-231.694	56.9423	-69.7932	-221.66	28.4388	-77.818	-224.796	23.9023	-40.5017	-250.184	46.3581	-69.1262	-240.828	16.3427	-71.6529	-234.221	20.7471	-32.768	-268.016	32.6079	-61.131	-249.462	5.073	-58.3584	-243.71	10.9143	-24.8401	-278.964	19.6911	-55.797	-262.737	-0.894149	-50.0242	-254.537	10.9941	-20.3483	-274.062	49.7253	-7.15544	-262.503	34.6491	21.1477	-237.729	52.9866	4.27389	
71	0.591667	-202.78	17.6539	-16.6401	-192.063	10.6839	-39.0199	-182.699	11.5165	-67.4442	-170.595	8.77908	-88.2061	-232.774	25.7569	-81.1059	-226.255	-5.24727	-79.2632	-224.34	2.69665	-46.4319	-249.31	21.436	-79.904	-240.685	-9.77233	-74.3249	-235.812	6.13786	-35.7859	-263.824	11.1611	-69.577	-256.611	-14.4112	-61.3482	-245.979	-0.51357	-27.4365	-280.891	8.23481	-56.5251	-264.221	-14.1331	-47.6165	-255.52	2.73153	-21.4638	-266.363	44.061	-22.2864	-260.283	35.7742	9.76383	-227.697	43.7923	-12.2625	
72	0.6	-197.492	-0.934815	-15.2116	-189.259	-13.1469	-40.2755	-175.006	-21.5949	-65.6265	-169.941	-29.1912	-86.1373	-227.318	-0.316051	-86.044	-228.726	-31.1528	-78.5738	-221.383	-20.4253	-47.7943	-247.675	-4.30977	-83.6965	-245.725	-31.593	-67.517	-237.182	-10.756	-37.5356	-262.824	-6.22107	-71.1395	-256.1	-31.6128	-54.6999	-242.799	-11.8609	-28.7927	-274.34	-3.78028	-59.8509	-266.683	-26.9008	-44.8072	-258.109	-7.0646	-20.111	-258.371	36.3384	-29.3657	-250.924	33.0485	3.71237	-222.16	30.5035	-19.1159	
73	0.608333	-195.091	-11.5032	-12.3192	-187.452	-29.0992	-36.9738	-172.377	-46.2746	-58.7366	-162.821	-60.1757	-69.557	-218.137	-21.3822	-82.4086	-223.004	-51.8805	-68.6054	-221.271	-31.8022	-39.84	-237.927	-21.5898	-81.1519	-243.38	-47.2733	-64.1957	-234.131	-19.7329	-33.2588	-254.826	-18.2837	-70.7788	-253.392	-41.9039	-48.0098	-241.975	-18.9402	-25.7178	-269.376	-18.3139	-60.827	-266.377	-34.6969	-38.7189	-251.926	-11.161	-22.995	-245.19	26.3731	-39.718	-247.698	30.5667	-7.98002	-214.552	19.9885	-25.9235	
74	0.616667	-193.378	-19.4057	-8.64822	-180.444	-43.6925	-23.8555	-167.609	-64.9597	-42.2163	-155.949	-79.8923	-46.8162	-212.649	-42.0577	-73.2737	-221.886	-66.2298	-53.8206	-213.771	-44.2307	-28.7796	-231.712	-42.2275	-74.5941	-238.565	-60.6585	-50.8214	-227.003	-33.6669	-24.8287	-246.427	-32.6599	-66.0921	-252.315	-51.8297	-37.5587	-240.741	-30.766	-19.8621	-265.302	-28.6288	-57.5306	-261.075	-42.8296	-36.3909	-248.051	-20.3329	-18.9833	-240.982	16.3048	-40.7354	-235.511	26.3893	-11.5961	-205.932	9.80296	-25.8157	
75	0.625	-184.141	-29.1916	2.04152	-175.135	-55.0569	-7.70112	-157.708	-75.7446	-15.1222	-145.73	-92.0942	-16.5753	-203.927	-63.8393	-57.3961	-212.885	-80.558	-29.1985	-203.478	-54.528	-12.2431	-219.797	-63.4551	-58.709	-228.911	-77.2038	-30.3687	-219.67	-40.9719	-11.6647	-239.576	-55.3079	-52.1091	-240.162	-67.3733	-23.2653	-231.093	-35.6507	-6.80767	-252.374	-46.18	-47.8768	-253.693	-55.9036	-21.2299	-239.152	-31.321	-7.66879	-227.427	-3.7693	-44.9481	-229.771	15.2834	-12.6373	-200.526	-0.508798	-21.023	
76	0.633333	-172.505	-32.9867	13.6138	-159.173	-55.546	12.4615	-140.948	-76.5219	6.2316	-122.224	-85.2283	12.8013	-177.597	-80.7121	-32.6222	-186.571	-93.1343	-1.33663	-189.371	-61.2747	5.72202	-199.613	-85.7074	-34.0235	-207.93	-90.8854	-3.24903	-203.647	-53.5229	7.60927	-216.093	-77.3457	-31.5283	-223.641	-79.2442	1.60225	-219.336	-49.2317	9.9619	-235.767	-72.6132	-27.6667	-234.227	-71.5355	-0.761374	-226.164	-39.9028	9.70967	-219.145	-23.1403	-34.5561	-227.732	-1.85157	-16.0506	-191.522	-14.4726	-18.3458	
77	0.641667	-167.437	-19.4232	21.0671	-143.776	-37.9793	21.5533	-115.993	-48.0374	23.5394	-98.7612	-50.6891	27.8635	-151.989	-78.3071	-12.5988	-156.001	-84.7918	21.2037	-169.295	-52.7091	20.3518	-166.773	-87.4502	-12.02	-171.148	-89.5413	19.6585	-186.015	-52.8497	21.4292	-188.042	-87.2244	-7.50174	-193.699	-81.7744	23.4959	-199.158	-49.0304	25.9178	-203.645	-86.8514	-5.1161	-203.586	-76.8308	21.0957	-206.15	-50.0226	23.4084	-208.203	-39.4238	-29.561	-223.478	-16.8286	-10.3118	-185.972	-17.4801	-13.4799	
78	0.65	-162.298	2.13782	20.48	-134.255	-9.87609	19.7189	-107.623	-10.6558	20.7124	-87.4373	-8.34174	22.1798	-127.185	-56.7988	-2.88115	-125.565	-59.0824	28.5817	-149.73	-35.9913	28.8832	-143.341	-71.877	-3.27755	-143.648	-66.777	32.8478	-166.129	-37.1311	29.0981	-159.269	-76.6026	1.54086	-163.484	-71.6679	35.169	-178.495	-44.5189	37.2959	-176.321	-81.5503	4.917	-175.006	-68.3648	33.4478	-187.993	-44.0696	34.4826	-194.606	-41.4463	-19.3436	-215.642	-24.9689	-7.13738	-180.688	-10.4327	-10.1038	
